<svg width="400" height="300" viewBox="0 0 400 300" fill="none" xmlns="http://www.w3.org/2000/svg">
  <!-- Blue atmospheric sky gradient -->
  <defs>
    <linearGradient id="skyGradient" x1="0" y1="0" x2="400" y2="300" gradientUnits="userSpaceOnUse">
      <stop offset="0%" style="stop-color:#87CEEB;stop-opacity:1" />
      <stop offset="30%" style="stop-color:#7BBFE8;stop-opacity:1" />
      <stop offset="70%" style="stop-color:#6BA5C7;stop-opacity:1" />
      <stop offset="100%" style="stop-color:#A8C8D8;stop-opacity:1" />
    </linearGradient>
  </defs>
  
  <!-- Main sky background -->
  <rect width="400" height="300" fill="url(#skyGradient)"/>
  
  <!-- Upper cloud layers -->
  <path d="M 0 50 Q 80 30 160 50 T 320 50 T 400 50 L 400 0 L 0 0 Z" fill="#B8D4E8" opacity="0.4"/>
  <path d="M 0 80 Q 120 60 240 80 T 400 80 L 400 0 L 0 0 Z" fill="#C8DCE8" opacity="0.3"/>
  
  <!-- Mid atmospheric layer -->
  <path d="M 0 150 Q 100 130 200 150 T 400 150" fill="none" stroke="#98B8C8" stroke-width="2" opacity="0.2"/>
  
  <!-- Large cloud formation (center-left) -->
  <ellipse cx="120" cy="120" rx="80" ry="40" fill="white" opacity="0.5"/>
  <ellipse cx="100" cy="110" rx="60" ry="35" fill="white" opacity="0.6"/>
  <ellipse cx="140" cy="115" rx="50" ry="30" fill="white" opacity="0.55"/>
  
  <!-- Large cloud formation (right) -->
  <ellipse cx="320" cy="80" rx="70" ry="35" fill="white" opacity="0.45"/>
  <ellipse cx="340" cy="75" rx="55" ry="30" fill="white" opacity="0.5"/>
  
  <!-- Distant horizon/land mass -->
  <path d="M 0 220 Q 100 200 200 220 Q 280 210 350 230 L 400 240 L 400 300 L 0 300 Z" fill="#5A7A8A" opacity="0.3"/>
  
  <!-- Ocean/water reflection area -->
  <path d="M 0 250 Q 150 240 300 250 T 400 250 L 400 300 L 0 300 Z" fill="#4A6A7A" opacity="0.25"/>
  
  <!-- Scattered particles/stars -->
  <circle cx="50" cy="60" r="2" fill="white" opacity="0.7"/>
  <circle cx="180" cy="90" r="1.5" fill="white" opacity="0.6"/>
  <circle cx="300" cy="120" r="2" fill="white" opacity="0.65"/>
  <circle cx="240" cy="150" r="1" fill="white" opacity="0.5"/>
  <circle cx="360" cy="140" r="1.5" fill="white" opacity="0.6"/>
  <circle cx="90" cy="180" r="1" fill="white" opacity="0.4"/>
  <circle cx="320" cy="200" r="1.5" fill="white" opacity="0.5"/>
  
  <!-- Subtle texture overlay -->
  <rect width="400" height="300" fill="url(#skyGradient)" opacity="0.1"/>
</svg>
