<svg width="400" height="300" viewBox="0 0 400 300" fill="none" xmlns="http://www.w3.org/2000/svg">
  <!-- Background gradient - sky/ocean scene -->
  <defs>
    <linearGradient id="skyGradient" x1="0" y1="0" x2="0" y2="300" gradientUnits="userSpaceOnUse">
      <stop offset="0%" style="stop-color:#5B7C99;stop-opacity:1" />
      <stop offset="50%" style="stop-color:#7B93AA;stop-opacity:1" />
      <stop offset="100%" style="stop-color:#97B0C7;stop-opacity:1" />
    </linearGradient>
  </defs>
  
  <rect width="400" height="300" fill="url(#skyGradient)"/>
  
  <!-- Sky texture with clouds/atmospheric effect -->
  <path d="M 0 80 Q 100 60 200 80 T 400 80 L 400 0 L 0 0 Z" fill="#8FA9BE" opacity="0.3"/>
  <path d="M 0 120 Q 150 100 300 120 T 400 120 L 400 0 L 0 0 Z" fill="#A5BDCF" opacity="0.2"/>
  
  <!-- Distant landscape/horizon -->
  <path d="M 0 200 Q 100 180 200 200 T 400 200 L 400 300 L 0 300 Z" fill="#4A6578" opacity="0.5"/>
  
  <!-- Water/lower section -->
  <path d="M 0 240 Q 150 230 300 240 T 400 240 L 400 300 L 0 300 Z" fill="#3E5568" opacity="0.4"/>
  
  <!-- Scattered dots/stars/particles -->
  <circle cx="80" cy="100" r="2" fill="white" opacity="0.6"/>
  <circle cx="150" cy="60" r="1.5" fill="white" opacity="0.5"/>
  <circle cx="320" cy="90" r="2" fill="white" opacity="0.7"/>
  <circle cx="200" cy="140" r="1" fill="white" opacity="0.4"/>
  <circle cx="360" cy="120" r="1.5" fill="white" opacity="0.5"/>
</svg>
